<svg width="707" height="823" viewBox="0 0 707 823" fill="none" xmlns="http://www.w3.org/2000/svg">
<g clip-path="url(#clip0_1716_5020)">
<path d="M147.945 385.456C148.105 378.776 148.344 372.97 148.503 368.04C148.663 363.189 148.663 358.815 148.424 354.998C148.025 349.113 147.069 344.978 145.634 342.512C144.199 340.047 142.924 338.854 141.888 338.934C141.011 339.013 140.135 339.649 139.337 340.922C138.54 342.194 137.823 343.785 137.265 345.932C136.707 348 136.309 350.385 135.99 353.089C135.751 355.793 135.671 358.576 135.91 361.439C136.229 365.495 136.946 369.551 138.222 373.527C139.417 377.503 141.489 381.161 144.279 384.342V384.501C144.279 384.74 144.04 384.899 143.482 384.978C142.526 385.058 141.171 384.899 139.337 384.581C137.504 384.263 135.512 383.786 133.519 383.149C131.527 382.513 129.693 381.797 128.02 381.002C126.346 380.207 125.31 379.412 124.911 378.617C122.919 374.958 121.484 371.539 120.528 368.437C119.571 365.336 119.013 362.393 118.854 359.69C118.535 355.236 119.093 351.419 120.528 348.159C121.962 344.898 123.875 342.194 126.266 339.968C128.657 337.741 131.367 336.071 134.396 334.878C137.425 333.685 140.294 332.969 143.004 332.81C144.678 332.731 146.351 332.81 147.945 333.049C155.278 334.242 160.937 335.355 164.922 336.309C168.907 337.264 171.936 338.616 173.929 340.445C175.921 342.194 177.117 344.58 177.675 347.443C178.233 350.385 178.631 354.441 179.03 359.69C179.348 364.62 179.588 370.187 179.588 376.31C179.588 382.434 179.747 388.875 179.986 395.714C179.986 405.019 179.508 414.721 178.551 424.741C177.595 434.761 176.16 444.622 174.168 454.324C172.175 463.946 169.784 473.171 166.994 481.919C164.205 490.667 160.857 498.381 157.032 505.061C153.206 511.741 148.982 517.148 144.279 521.204C139.577 525.26 134.396 527.487 128.737 527.884C122.281 528.361 116.702 527.089 111.84 524.226C106.978 521.363 102.833 517.387 99.4062 512.456C95.979 507.526 93.2691 501.88 91.4359 495.518C89.523 489.156 88.4072 482.714 87.929 476.193C87.4507 469.831 87.6899 463.469 88.4869 457.187C89.2839 450.904 90.7186 445.099 92.7111 439.85C94.7037 434.602 97.2542 430.148 100.442 426.411C103.63 422.753 107.297 420.287 111.601 419.015C116.144 420.128 120.448 421.878 124.433 424.105C128.418 426.411 132.085 429.512 135.512 433.488C135.352 433.329 134.794 433.17 133.758 432.852C132.722 432.534 131.447 432.455 129.853 432.534C128.02 432.693 125.947 433.329 123.636 434.522C121.325 435.715 119.173 437.942 117.021 441.123C114.869 444.304 112.876 448.837 111.043 454.642C109.21 460.447 107.855 468.002 106.898 477.307C106.5 481.283 106.261 484.861 106.181 488.122C106.101 491.382 106.101 494.245 106.261 496.87C106.579 501.561 107.217 505.299 108.094 508.083C108.971 510.866 110.007 512.934 111.043 514.445C112.238 516.194 113.514 517.387 114.869 517.944C115.267 518.023 115.905 518.103 116.861 518.023C120.368 517.785 123.556 515.876 126.346 512.218C129.135 508.639 131.527 503.868 133.679 498.142C135.751 492.337 137.584 485.736 139.098 478.34C140.613 470.945 141.968 463.31 143.004 455.358C144.12 447.485 144.996 439.691 145.634 431.978C146.272 424.343 146.75 417.265 147.148 410.903C147.467 404.542 147.706 399.054 147.866 394.601C147.786 389.909 147.866 386.967 147.945 385.456Z" fill="black"/>
<path d="M253.233 502.993C247.415 502.198 242.872 501.084 239.604 499.494C236.336 497.983 233.945 496.074 232.431 493.927C230.916 491.7 230.04 489.315 229.96 486.69C229.88 484.066 230.04 481.283 230.598 478.34C231.155 475.398 231.793 472.376 232.67 469.354C233.467 466.253 234.104 463.231 234.423 460.209C234.025 460.527 233.228 461.243 232.032 462.356C230.757 463.469 229.163 464.821 227.17 466.253C225.178 467.684 222.866 469.036 220.316 470.308C217.765 471.501 214.976 472.217 211.947 472.456C207.563 470.149 203.897 468.161 200.868 466.65C197.84 465.06 194.97 463.072 192.181 460.686C191.304 459.811 190.666 458.062 190.108 455.278C189.55 452.574 189.471 449.314 189.789 445.576C190.108 441.839 190.985 437.703 192.499 433.17C193.934 428.638 196.245 424.105 199.434 419.492C202.622 414.88 206.687 410.426 211.788 406.053C216.889 401.679 223.265 397.702 230.916 394.203C232.909 394.84 235.699 396.032 239.285 397.782C242.792 399.532 246.379 401.52 249.886 403.905C253.393 406.291 256.581 408.836 259.37 411.619C262.16 414.403 263.913 417.027 264.471 419.651C265.268 422.196 264.71 424.582 262.718 426.729C260.725 428.876 258.334 430.705 255.704 432.216C258.015 433.648 259.53 435.159 260.167 436.829C260.327 437.226 260.247 438.737 259.928 441.441C259.609 444.145 259.131 447.485 258.414 451.382C257.776 455.278 257.059 459.573 256.342 464.105C255.624 468.718 254.907 473.012 254.269 477.147C253.632 481.283 253.074 484.861 252.675 487.883C252.197 490.905 251.958 492.893 251.878 493.689C252.197 494.881 253.233 494.245 254.827 491.939C256.421 489.553 258.334 486.293 260.486 481.998C262.638 477.704 264.87 472.933 267.261 467.605C269.652 462.356 271.884 457.346 273.956 452.733C276.028 448.121 277.782 444.224 279.296 441.043C280.81 437.862 281.687 436.272 281.926 436.272C282.803 436.192 283.839 436.669 284.875 437.544C285.911 438.419 286.469 439.294 286.549 440.089C286.23 440.884 285.433 443.111 284.158 446.69C282.883 450.268 281.289 454.483 279.376 459.334C277.463 464.185 275.391 469.275 273.079 474.682C270.768 480.01 268.457 484.861 266.065 489.235C263.754 493.609 261.443 497.108 259.211 499.892C256.82 502.436 254.827 503.55 253.233 502.993ZM234.503 427.047C232.032 428.001 229.243 430.228 226.054 433.648C222.866 437.067 219.917 440.725 217.207 444.622C214.497 448.519 212.345 452.097 210.751 455.517C209.157 458.936 208.599 461.084 209.078 462.117C210.034 462.992 211.947 462.674 214.657 461.322C217.367 459.97 220.156 457.744 223.105 454.642C225.975 451.541 228.605 447.644 230.916 442.952C233.228 438.26 234.423 433.011 234.503 427.047ZM246.458 428.638C247.893 428.24 249.168 427.763 250.364 426.968C251.559 426.252 252.994 425.297 254.588 424.105C255.943 423.071 256.82 422.116 257.139 421.242C257.457 420.367 257.457 419.651 257.218 419.095C256.9 418.538 256.421 418.061 255.704 417.743C254.987 417.425 254.429 417.106 253.871 416.868C252.117 417.663 250.204 418.538 248.132 419.492C246.06 420.526 244.227 421.401 242.633 422.355C240.959 423.23 239.684 424.025 238.648 424.661C237.611 425.297 237.213 425.695 237.372 425.854L246.458 428.638Z" fill="black"/>
<path d="M332.139 437.226C333.813 436.192 335.646 434.522 337.798 432.296C339.95 430.069 341.942 427.683 343.935 425.139C345.848 422.673 347.521 420.129 348.956 417.584C350.391 415.039 351.108 412.892 351.268 410.983C352.304 411.301 353.34 411.699 354.296 412.176C355.014 412.653 355.731 413.369 356.448 414.164C357.166 415.039 357.564 416.152 357.644 417.663C357.644 419.095 357.166 420.844 356.209 422.912C355.332 424.98 353.977 427.206 352.144 429.592C350.311 431.978 348.239 434.443 345.768 436.908C343.297 439.373 340.508 441.759 337.399 444.065C338.196 445.576 338.914 447.326 339.631 449.314C340.348 451.302 340.986 453.37 341.544 455.597C342.102 457.823 342.58 459.97 343.058 462.197C343.536 464.424 343.855 466.412 343.935 468.241C344.572 475.319 344.174 482.317 342.739 489.394C341.305 496.472 339.153 503.232 336.283 509.753C333.414 516.274 329.907 522.397 325.842 528.123C321.777 533.849 317.473 538.938 312.851 543.312C308.308 547.686 303.605 551.265 298.823 554.048C294.041 556.831 289.418 558.422 284.955 558.819C282.484 558.74 279.535 557.547 276.347 555.4C273.079 553.173 269.891 550.628 266.702 547.686C263.514 544.744 260.645 541.722 258.095 538.62C255.544 535.519 253.631 533.053 252.436 531.145C250.921 528.759 251.24 525.34 253.233 520.966C255.225 516.592 258.174 511.661 262.159 506.254C266.145 500.846 270.767 495.2 276.187 489.315C281.607 483.43 286.867 477.704 292.048 472.217C297.229 466.73 302.091 461.799 306.634 457.346C311.097 452.893 314.445 449.394 316.676 446.928C316.597 445.497 316.039 443.429 315.162 440.725C314.285 438.022 313.09 435.477 311.655 433.012C310.22 430.546 308.706 428.638 307.032 427.365C305.359 426.013 303.685 426.013 302.091 427.286C301.453 427.842 300.656 428.32 299.7 428.638C298.743 428.956 297.707 429.035 296.671 428.956C295.635 428.797 294.519 428.479 293.403 427.763C292.287 427.127 291.331 426.093 290.454 424.741C294.678 420.606 299.54 416.709 305.119 412.892C310.699 409.075 316.517 404.86 322.495 400.247C323.212 399.691 322.893 399.373 321.459 399.452C320.024 399.452 318.031 399.77 315.401 400.247C312.771 400.725 309.822 401.52 306.474 402.474C303.127 403.428 299.859 404.542 296.751 405.814C293.642 407.086 290.773 408.518 288.143 410.188C285.592 411.778 283.759 413.528 282.643 415.278C282.643 415.437 282.165 415.039 281.288 414.085C280.332 413.13 279.296 411.937 278.18 410.427C276.984 408.916 275.948 407.166 274.832 405.257C273.796 403.269 273.079 401.281 272.601 399.293C272.202 397.305 272.361 395.317 272.999 393.488C273.637 391.579 275.231 389.989 277.622 388.637C279.136 387.762 281.288 386.808 283.998 385.694C286.788 384.661 289.816 383.627 293.244 382.672C296.671 381.718 300.258 380.843 304.083 380.128C307.909 379.412 311.575 378.935 315.162 378.776C318.669 378.617 321.937 378.696 324.965 379.173C327.994 379.651 330.385 380.525 332.139 381.798C333.095 382.513 333.813 383.786 334.211 385.694C334.61 387.603 334.849 389.671 334.849 391.977C334.849 394.283 334.849 396.589 334.769 398.895C334.689 401.202 334.53 403.031 334.37 404.303C329.11 407.723 324.806 410.745 321.459 413.369C318.191 415.993 315.242 418.538 312.612 420.765C315.242 422.196 317.394 423.469 319.147 424.741C320.901 426.013 322.415 427.286 323.85 428.558C325.284 429.831 326.56 431.182 327.755 432.614C329.03 434.125 330.465 435.636 332.139 437.226ZM264.79 527.407C265.666 528.362 267.26 528.6 269.572 527.964C271.883 527.328 274.354 526.214 277.064 524.624C279.694 522.954 282.324 521.125 284.875 518.978C287.425 516.83 289.338 514.763 290.693 512.854C291.41 511.9 292.765 510.071 294.678 507.447C296.591 504.822 298.743 501.8 301.134 498.301C303.525 494.882 305.996 491.144 308.547 487.168C311.097 483.192 313.329 479.295 315.321 475.557C317.314 471.82 318.828 468.32 320.024 465.06C321.219 461.799 321.618 459.255 321.379 457.267C319.466 458.3 316.676 460.448 312.93 463.788C309.184 467.048 305.119 470.945 300.736 475.478C296.352 480.011 291.809 484.862 287.266 490.11C282.723 495.359 278.658 500.448 275.071 505.299C271.564 510.23 268.775 514.604 266.782 518.58C264.79 522.556 264.152 525.499 264.79 527.407Z" fill="black"/>
<path d="M412.719 431.659C414.393 430.625 416.226 428.955 418.378 426.729C420.53 424.502 422.522 422.116 424.515 419.572C426.428 417.106 428.102 414.561 429.536 412.017C430.971 409.472 431.688 407.325 431.848 405.416C432.884 405.734 433.92 406.132 434.876 406.609C435.594 407.086 436.231 407.802 437.028 408.597C437.746 409.472 438.144 410.585 438.224 412.096C438.224 413.528 437.746 415.277 436.789 417.345C435.912 419.413 434.558 421.639 432.724 424.025C430.891 426.411 428.819 428.876 426.348 431.341C423.877 433.806 421.088 436.192 417.979 438.498C418.776 440.009 419.494 441.759 420.211 443.747C420.928 445.735 421.566 447.803 422.124 450.029C422.682 452.256 423.16 454.403 423.638 456.63C424.116 458.857 424.435 460.845 424.515 462.674C425.153 469.752 424.754 476.75 423.319 483.827C421.885 490.905 419.733 497.665 416.863 504.186C413.994 510.707 410.487 516.83 406.422 522.556C402.357 528.282 398.053 533.371 393.431 537.745C388.888 542.119 384.185 545.698 379.403 548.481C374.621 551.264 369.998 552.855 365.535 553.252C363.064 553.173 360.115 551.98 356.927 549.833C353.659 547.606 350.471 545.061 347.283 542.119C344.094 539.177 341.225 536.155 338.675 533.053C336.124 529.952 334.211 527.486 333.016 525.578C331.501 523.192 331.82 519.773 333.813 515.399C335.805 511.025 338.754 506.094 342.739 500.687C346.725 495.279 351.347 489.633 356.767 483.748C362.187 477.863 367.447 472.137 372.628 466.65C377.809 461.163 382.671 456.232 387.214 451.779C391.677 447.326 395.025 443.827 397.256 441.361C397.177 439.93 396.619 437.862 395.742 435.158C394.865 432.455 393.67 429.91 392.235 427.444C390.8 424.979 389.286 423.071 387.612 421.798C385.939 420.446 384.265 420.446 382.671 421.719C382.033 422.275 381.236 422.753 380.28 423.071C379.323 423.389 378.287 423.468 377.251 423.389C376.215 423.23 375.099 422.912 373.983 422.196C372.867 421.56 371.911 420.526 371.034 419.174C375.258 415.039 380.12 411.142 385.699 407.325C391.279 403.508 397.097 399.293 403.075 394.68C403.792 394.124 403.473 393.806 402.039 393.885C400.604 393.885 398.611 394.203 395.981 394.68C393.351 395.158 390.402 395.953 387.054 396.907C383.707 397.861 380.439 398.975 377.331 400.247C374.222 401.519 371.353 402.951 368.723 404.621C366.172 406.211 364.339 407.961 363.223 409.711C363.223 409.87 362.745 409.472 361.868 408.518C360.912 407.563 359.876 406.37 358.76 404.86C357.564 403.349 356.528 401.599 355.412 399.69C354.376 397.702 353.659 395.714 353.181 393.726C352.782 391.738 352.941 389.75 353.579 387.921C354.217 386.012 355.811 384.422 358.202 383.07C359.716 382.195 361.868 381.241 364.578 380.127C367.368 379.094 370.396 378.06 373.824 377.105C377.251 376.151 380.838 375.276 384.663 374.561C388.489 373.845 392.155 373.368 395.742 373.209C399.249 373.05 402.517 373.129 405.546 373.606C408.574 374.083 410.965 374.958 412.719 376.231C413.675 376.946 414.393 378.219 414.791 380.127C415.19 382.036 415.429 384.104 415.429 386.41C415.429 388.716 415.429 391.022 415.349 393.328C415.269 395.635 415.11 397.464 414.951 398.736C409.69 402.156 405.386 405.178 402.039 407.802C398.771 410.426 395.822 412.971 393.192 415.198C395.822 416.629 397.974 417.902 399.727 419.174C401.481 420.446 402.995 421.719 404.43 422.991C405.864 424.264 407.14 425.615 408.335 427.047C409.531 428.558 411.045 430.069 412.719 431.659ZM345.37 521.761C346.246 522.715 347.84 522.954 350.152 522.317C352.463 521.681 354.934 520.568 357.644 518.977C360.274 517.307 362.904 515.478 365.455 513.331C368.005 511.184 369.918 509.116 371.273 507.208C371.991 506.253 373.346 504.424 375.258 501.8C377.171 499.176 379.323 496.154 381.714 492.655C384.105 489.235 386.576 485.497 389.127 481.521C391.677 477.545 393.909 473.648 395.901 469.911C397.894 466.173 399.408 462.674 400.604 459.413C401.8 456.153 402.198 453.608 401.959 451.62C400.046 452.654 397.256 454.801 393.51 458.141C389.764 461.401 385.699 465.298 381.316 469.831C376.932 474.364 372.389 479.215 367.846 484.464C363.303 489.712 359.238 494.802 355.651 499.653C352.144 504.583 349.355 508.957 347.362 512.933C345.37 516.91 344.732 519.852 345.37 521.761Z" fill="black"/>
<path d="M489.792 421.719C488.597 423.786 487.162 426.411 485.408 429.671C483.655 432.932 481.742 436.431 479.59 440.01C477.438 443.668 475.206 447.246 472.736 450.825C470.265 454.403 467.794 457.505 465.164 460.129C462.613 462.754 459.983 464.662 457.353 466.014C454.723 467.286 452.252 467.525 450.02 466.65C447.629 465.935 445.079 464.901 442.528 463.708C439.978 462.515 437.587 461.084 435.514 459.334C433.442 457.664 431.689 455.835 430.174 453.767C428.74 451.779 427.863 449.632 427.544 447.246C426.747 441.68 426.827 435.477 427.863 428.717C428.819 421.957 430.094 415.516 431.689 409.472C433.203 403.428 434.877 398.1 436.471 393.567C438.145 389.034 439.42 386.251 440.217 385.138C442.847 382.752 446.035 381.161 449.941 380.287C453.846 379.491 457.512 379.173 461.019 379.412C464.526 379.65 467.475 380.128 469.787 380.843C472.178 381.638 473.134 382.354 472.815 383.229C471.221 386.489 469.229 390.545 466.917 395.317C464.606 400.168 462.374 405.257 460.222 410.665C458.07 416.073 455.918 421.48 453.926 426.968C451.933 432.455 450.419 437.385 449.462 441.839C448.426 446.292 448.028 450.109 448.187 453.29C448.347 456.392 449.462 458.38 451.455 459.175C458.469 451.859 464.526 444.383 469.707 436.749C474.888 429.115 479.112 421.083 482.22 412.733C485.408 404.383 487.481 395.555 488.437 386.33C489.473 377.106 489.234 367.085 487.8 356.429C488.836 355.873 490.27 355.634 492.183 355.952C494.096 356.191 496.089 356.668 498.081 357.383C500.074 358.099 501.987 358.815 503.74 359.61C505.494 360.405 506.689 360.962 507.407 361.36C508.363 361.916 509.24 363.666 509.957 366.37C510.674 369.153 511.312 372.573 511.95 376.787C512.587 380.923 513.065 385.535 513.544 390.625C513.942 395.714 514.261 400.883 514.42 406.132C514.58 411.381 514.66 416.391 514.66 421.162C514.66 425.934 514.5 430.148 514.261 433.727C518.246 430.705 521.514 427.445 523.905 423.866C526.376 420.367 528.448 417.186 530.281 414.244C532.035 411.381 533.629 409.074 535.064 407.404C536.498 405.734 538.172 405.257 540.165 405.893C541.041 406.609 541.121 408.438 540.483 411.381C539.846 414.323 538.411 417.663 536.259 421.56C534.107 425.377 531.158 429.433 527.412 433.727C523.666 438.021 519.203 441.918 513.942 445.417C513.464 461.084 512.109 475.239 509.877 487.883C507.646 500.528 505.095 511.423 502.226 520.727C499.357 530.031 496.328 537.507 493.379 543.312C490.35 549.117 487.72 553.093 485.488 555.161C482.858 555.479 479.989 555.479 476.88 555.161C473.772 554.843 470.663 554.207 467.555 553.253C464.447 552.298 461.577 550.946 459.027 549.356C456.397 547.686 454.404 545.698 453.049 543.471C449.622 538.063 447.709 531.542 447.31 523.908C446.912 516.274 447.709 508.48 449.622 500.607C451.535 492.734 454.563 485.179 458.628 478.022C462.693 470.865 467.475 464.901 473.055 460.209C475.764 457.903 478.395 455.676 480.865 453.449C483.336 451.223 485.727 449.632 488.039 448.519L489.234 436.829C489.075 436.033 488.995 434.999 488.995 433.568C488.995 432.216 489.075 430.785 489.155 429.353C489.234 427.922 489.314 426.49 489.473 425.218C489.792 423.787 489.872 422.673 489.792 421.719ZM456.795 534.564C458.309 533.371 459.983 531.224 461.896 528.043C463.809 524.862 465.722 520.966 467.714 516.512C469.707 512.059 471.7 507.208 473.612 502.039C475.525 496.87 477.358 491.701 479.032 486.611C480.706 481.521 482.22 476.67 483.416 472.058C484.691 467.445 485.648 463.469 486.365 460.129C481.104 464.264 476.402 469.195 472.098 474.921C467.794 480.567 464.287 486.69 461.498 493.291C458.708 499.812 456.875 506.651 455.918 513.808C454.962 520.727 455.281 527.725 456.795 534.564Z" fill="black"/>
<path d="M569.814 403.031C572.444 401.281 575.234 399.372 578.183 397.225C581.132 395.158 583.842 393.011 586.233 390.943C588.624 388.875 590.537 386.967 591.971 385.217C593.326 383.468 593.725 382.116 593.167 381.082C591.732 379.889 589.66 379.491 586.87 379.968C584.081 380.446 581.052 381.479 577.704 383.149C574.437 384.819 571.089 386.967 567.662 389.591C564.314 392.215 561.365 394.999 558.974 398.1C556.583 401.122 554.83 404.303 553.794 407.643C552.757 410.904 552.917 414.005 554.351 416.947C554.67 417.743 554.989 418.299 555.228 418.617C558.097 421.719 560.489 424.264 562.481 426.252C564.474 428.319 566.148 429.989 567.502 431.421C568.857 432.852 570.053 434.045 571.009 435.079C571.966 436.113 572.922 437.067 573.799 437.942C574.676 437.226 576.19 435.954 578.262 434.204C580.335 432.455 582.805 430.308 585.515 427.922C588.225 425.536 591.095 422.991 594.044 420.367C596.993 417.743 599.782 415.198 602.333 412.812C604.883 410.426 606.955 408.279 608.709 406.371C610.383 404.462 611.419 403.031 611.738 402.156C612.933 402.633 613.969 403.031 614.766 403.508C615.484 404.144 616.121 404.78 616.759 405.496C617.397 406.212 617.715 407.325 617.715 408.756C617.795 409.79 616.36 411.858 613.411 414.88C610.462 417.902 606.955 421.321 602.891 425.059C598.826 428.797 594.602 432.534 590.218 436.192C585.834 439.85 582.327 442.793 579.617 445.099C582.088 447.962 584.4 450.984 586.551 454.244C588.783 457.505 590.616 461.004 592.21 464.662C593.805 468.241 594.522 472.376 594.362 477.148C594.203 481.919 593.406 486.77 591.892 491.78C590.377 496.79 588.305 501.8 585.754 506.651C583.124 511.582 580.096 516.035 576.589 520.011C573.082 523.988 569.336 527.328 565.35 530.031C561.365 532.735 557.141 534.326 552.837 534.723C550.207 534.644 547.338 533.849 544.309 532.338C541.28 530.827 538.251 528.998 535.302 526.85C532.353 524.703 529.643 522.397 527.093 519.932C524.542 517.466 522.47 515.319 520.876 513.49C518.884 511.105 518.086 508.083 518.565 504.265C519.043 500.528 520.318 496.392 522.47 492.019C524.622 487.565 527.332 482.953 530.68 478.181C534.027 473.33 537.614 468.718 541.36 464.344C545.106 459.97 548.932 455.914 552.678 452.256C556.424 448.598 559.771 445.656 562.641 443.509C560.329 440.487 557.54 437.862 554.192 435.636C550.845 433.409 547.577 431.103 544.229 428.717C540.882 426.411 537.773 423.946 534.904 421.48C532.035 419.015 529.883 415.993 528.448 412.574C526.137 407.245 525.499 401.361 526.694 394.999C527.89 388.637 530.281 382.593 533.947 376.867C537.534 371.141 542.157 366.29 547.736 362.234C553.315 358.179 559.293 355.793 565.669 355.077C568.299 355.157 571.169 355.952 574.357 357.463C577.465 358.974 580.574 360.803 583.523 362.95C586.472 365.097 589.261 367.404 591.892 369.869C594.522 372.334 596.594 374.481 598.188 376.31C600.34 378.776 601.376 381.479 601.217 384.501C601.057 387.444 600.181 390.386 598.587 393.17C596.913 395.953 594.761 398.498 592.131 400.804C589.421 403.11 586.711 404.86 583.842 405.973C580.972 407.166 578.262 407.643 575.632 407.325C573.161 406.927 571.169 405.496 569.814 403.031ZM532.832 509.753C534.107 510.945 536.179 510.786 539.048 509.196C541.918 507.605 545.026 505.22 548.294 501.959C551.642 498.699 554.909 494.802 558.257 490.349C561.525 485.816 564.314 481.283 566.546 476.591C568.778 471.899 570.292 467.366 571.089 462.913C571.886 458.459 571.488 454.642 569.814 451.461C567.104 453.767 564.075 456.551 560.728 459.811C557.38 463.072 554.192 466.571 551.004 470.308C547.816 474.046 544.867 477.943 542.077 481.839C539.288 485.816 536.976 489.553 535.143 493.052C533.389 496.551 532.194 499.812 531.556 502.754C530.998 505.697 531.397 508.003 532.832 509.753Z" fill="black"/>
<path d="M91.7553 657.986C96.4578 663.951 98.8489 670.71 98.8489 678.424C98.8489 685.343 97.1751 691.466 93.7479 696.715C90.3206 701.963 85.3791 706.099 79.0028 709.041C72.5468 711.983 64.9751 713.494 56.128 713.494H0.0966797V584.028H53.6572C62.4245 584.028 70.076 585.46 76.4523 588.323C82.8286 591.186 87.6904 595.162 90.9583 600.172C94.2261 605.261 95.8999 610.987 95.8999 617.429C95.8999 624.983 93.9073 631.266 89.8424 636.355C85.7776 641.445 80.4375 645.024 73.7424 647.091C80.9954 648.364 86.9731 652.022 91.7553 657.986ZM26.0799 637.389H49.8314C56.0483 637.389 60.8305 636.037 64.178 633.254C67.5256 630.471 69.1993 626.494 69.1993 621.325C69.1993 616.156 67.5256 612.1 64.178 609.238C60.8305 606.375 56.0483 604.943 49.8314 604.943H26.0799V637.389ZM67.127 687.808C70.634 684.865 72.3874 680.651 72.3874 675.163C72.3874 669.597 70.5543 665.223 66.8082 662.121C63.0622 658.94 58.0409 657.429 51.7443 657.429H26.0799V692.261H52.3022C58.6785 692.261 63.5404 690.83 67.127 687.808Z" fill="black"/>
<path d="M145.236 584.028V664.11C145.236 672.857 147.548 679.617 152.091 684.229C156.634 688.842 163.09 691.148 171.459 691.148C179.907 691.148 186.363 688.842 190.986 684.229C195.529 679.617 197.84 672.857 197.84 664.11V584.028H224.063V663.951C224.063 674.925 221.671 684.229 216.889 691.864C212.107 699.498 205.731 705.224 197.761 709.041C189.79 712.858 180.863 714.767 171.06 714.767C161.416 714.767 152.649 712.858 144.758 709.041C136.867 705.224 130.65 699.498 126.107 691.864C121.485 684.229 119.253 674.925 119.253 663.951V584.028H145.236Z" fill="black"/>
<path d="M316.04 713.415L287.426 662.996H275.152V713.415H249.169V584.028H297.868C307.91 584.028 316.438 585.778 323.532 589.277C330.626 592.776 335.886 597.547 339.393 603.591C342.9 609.556 344.653 616.315 344.653 623.711C344.653 632.22 342.183 639.934 337.241 646.773C332.299 653.612 324.887 658.384 315.163 660.929L346.168 713.415H316.04ZM275.152 643.513H296.911C304.005 643.513 309.265 641.843 312.692 638.423C316.199 635.004 317.873 630.312 317.873 624.268C317.873 618.303 316.12 613.691 312.692 610.43C309.185 607.17 303.925 605.5 296.911 605.5H275.152V643.513Z" fill="black"/>
<path d="M458.629 622.916C455.68 617.508 451.535 613.373 446.355 610.51C441.174 607.647 435.116 606.216 428.102 606.216C420.451 606.216 413.596 607.965 407.698 611.385C401.721 614.884 397.098 619.815 393.75 626.256C390.403 632.698 388.729 640.093 388.729 648.523C388.729 657.191 390.403 664.746 393.83 671.108C397.257 677.549 401.96 682.48 408.017 685.979C414.075 689.478 421.168 691.148 429.218 691.148C439.102 691.148 447.231 688.524 453.528 683.275C459.824 678.027 463.969 670.71 465.961 661.326H421.328V641.445H491.546V664.03C489.793 673.016 486.126 681.367 480.388 689.08C474.649 696.715 467.316 702.918 458.39 707.53C449.383 712.143 439.341 714.449 428.182 714.449C415.669 714.449 404.351 711.665 394.229 706.019C384.106 700.373 376.216 692.58 370.477 682.559C364.738 672.539 361.869 661.167 361.869 648.443C361.869 635.719 364.738 624.268 370.477 614.248C376.216 604.148 384.186 596.355 394.229 590.709C404.351 585.062 415.589 582.279 427.943 582.279C442.529 582.279 455.281 585.858 466.041 592.935C476.801 600.013 484.293 610.033 488.358 622.916H458.629Z" fill="black"/>
<path d="M537.057 604.943V637.389H580.734V657.986H537.057V692.261H586.313V713.415H510.994V583.79H586.234V604.943H537.057Z" fill="black"/>
<path d="M676.776 713.415L648.163 662.996H635.889V713.415H609.906V584.028H658.604C668.647 584.028 677.175 585.778 684.269 589.277C691.362 592.776 696.623 597.547 700.13 603.591C703.636 609.556 705.39 616.315 705.39 623.711C705.39 632.22 702.919 639.934 697.978 646.773C693.036 653.612 685.624 658.384 675.9 660.929L706.904 713.415H676.776ZM635.889 643.513H657.648C664.741 643.513 670.002 641.843 673.429 638.423C676.856 635.004 678.61 630.312 678.61 624.268C678.61 618.303 676.856 613.691 673.429 610.43C669.922 607.17 664.662 605.5 657.648 605.5H635.889V643.513Z" fill="black"/>
<path d="M684.906 308.158C681.16 306.249 676.696 304.818 672.472 304.659C651.749 303.784 631.106 303.466 610.383 302.909C600.899 302.671 591.494 302.273 582.009 301.875C583.603 300.841 585.277 300.682 586.871 300.126C590.617 298.853 594.602 297.979 597.95 295.911C602.891 292.889 605.442 287.959 604.485 281.994C603.609 276.268 599.703 273.008 594.522 271.179C593.167 270.702 591.733 270.304 590.298 270.145C569.336 267.759 548.454 264.817 527.412 263.226C490.43 260.363 453.368 260.523 416.386 262.431C393.192 263.624 370.078 265.771 346.885 267.123C337.958 267.68 328.872 267.203 318.829 267.203C321.38 266.407 323.053 265.692 324.807 265.374C338.436 262.59 352.145 260.204 365.774 257.103C424.117 243.822 483.655 238.017 543.034 232.132C574.039 229.031 605.282 227.838 636.367 225.293C641.308 224.896 646.409 222.669 650.633 220.124C655.336 217.341 656.85 212.41 655.336 206.923C654.858 205.173 654.698 203.265 654.379 201.436C652.706 191.893 651.59 182.27 649.278 172.966C638.758 130.341 618.194 93.4414 585.675 63.6197C556.424 36.8994 521.674 20.5173 483.496 10.8949C455.201 3.73766 426.428 1.19287 397.496 0.318098C391.518 4.93052 382.99 7.95246 373.984 7.95246C370.238 7.87293 364.579 7.23674 362.267 1.19287C362.108 0.795246 362.028 0.397623 361.869 0C334.85 0.477148 307.99 2.78336 281.369 7.71388C248.451 13.8373 216.729 23.6188 187.478 40.319C139.896 67.5959 108.333 107.199 95.1821 160.799C91.1173 177.34 89.7623 194.199 90.1608 211.217C90.3999 221.635 94.0663 230.542 103.312 236.108C108.253 239.051 113.753 241.357 119.332 242.868C133.838 246.685 148.743 247.321 163.567 246.367C192.818 244.459 222.07 242.232 251.321 240.085C262.479 239.289 273.558 238.494 284.716 237.699C283.839 238.494 282.883 238.892 281.847 239.21C225.816 253.683 171.06 272.054 116.941 292.491C113.594 293.764 110.246 294.957 106.978 296.388C101.877 298.615 98.6094 302.432 97.9717 308.078C97.3341 313.804 100.522 317.621 104.906 320.643C108.891 323.347 113.195 324.699 118.057 324.222C124.035 323.665 129.933 323.188 135.91 322.552C164.285 319.291 192.579 315.951 220.954 312.532C249.408 309.112 277.782 304.977 306.316 302.034C337.958 298.694 369.759 296.229 401.481 293.446C404.988 293.128 408.575 293.446 412.162 293.446C405.227 294.639 398.214 295.434 391.279 296.388C350.95 301.955 310.54 307.203 270.29 313.327C245.662 317.065 238.17 320.882 214.418 328.516C208.201 330.504 204.296 335.355 204.057 341.24C203.738 347.602 207.324 351.658 212.744 354.282C218.323 356.986 224.222 357.145 230.279 356.429C249.487 354.123 252.038 354.123 271.246 352.135C295.954 349.67 320.662 347.522 345.37 345.455C372.469 343.228 399.648 341.32 426.747 339.252C443.724 337.979 460.621 336.707 477.598 335.594C495.85 334.401 514.182 332.492 532.434 332.333C559.931 332.095 587.349 332.969 614.847 333.526C631.425 333.844 648.003 334.798 664.581 334.958C670.719 335.037 677.095 334.321 682.913 332.572C688.174 331.061 691.202 326.528 691.601 320.802C691.92 315.315 689.688 310.623 684.906 308.158ZM219.28 81.4332C213.86 89.2266 205.81 92.169 196.405 92.9642C194.811 92.6461 192.898 92.4871 191.224 91.9304C185.725 90.1013 183.892 85.4094 186.522 80.2403C190.906 71.8902 205.412 65.9259 214.498 68.6297C221.193 70.6178 223.265 75.7074 219.28 81.4332ZM272.522 120.162C265.03 130.023 254.429 133.919 242.633 134.874C236.416 134.238 230.04 133.76 227.489 127.16C224.939 120.559 228.765 115.549 233.308 111.493C242.314 103.541 252.835 99.2467 265.109 101.394C275.63 103.223 278.978 111.653 272.522 120.162ZM285.434 23.3802C280.014 31.1736 271.964 34.116 262.559 34.9113C260.965 34.5932 259.052 34.4341 257.378 33.8775C251.879 32.0484 250.045 27.3565 252.676 22.1874C257.059 13.8373 271.565 7.87293 280.651 10.5768C287.346 12.5649 289.419 17.6545 285.434 23.3802ZM295.954 59.2458C293.643 53.2019 297.389 48.669 301.454 45.0904C309.345 38.1718 318.59 34.5932 329.27 36.1837C338.994 37.6151 342.023 45.329 336.204 53.2815C330.785 60.6773 319.706 65.9259 307.671 66.0054C303.925 65.8464 298.345 65.2102 295.954 59.2458Z" fill="url(#paint0_linear_1716_5020)"/>
<path d="M74.8581 823C67.9239 811.628 70.8729 798.188 82.1908 791.031C94.7042 783.079 108.732 779.023 122.839 775.285C153.924 767.015 185.566 761.687 217.447 757.79C250.125 753.734 282.804 749.997 315.562 746.975C345.929 744.112 376.375 741.965 406.901 740.295C446.753 738.147 486.684 736.477 526.616 735.364C551.164 734.648 575.713 735.125 600.261 735.682C611.818 735.921 621.861 740.136 627.44 751.348C627.52 751.587 627.759 751.826 627.759 752.064C633.418 771.786 635.889 791.19 622.977 809.481C621.383 811.708 619.868 812.185 617.397 811.628C574.358 801.529 530.84 793.974 486.923 788.964C453.448 785.146 419.813 782.204 386.019 782.284C354.855 782.363 323.612 782.443 292.527 784.272C237.054 787.373 182.218 795.803 128.259 809.004C110.406 813.139 92.7913 818.149 74.8581 823Z" fill="url(#paint1_linear_1716_5020)"/>
<path d="M656.771 358.894C660.118 360.803 662.748 363.507 664.661 366.847C666.574 370.187 667.531 374.004 667.531 378.219C667.531 382.434 666.574 386.251 664.661 389.67C662.748 393.09 660.118 395.794 656.771 397.702C653.423 399.611 649.597 400.565 645.373 400.565C641.069 400.565 637.243 399.611 633.896 397.702C630.548 395.794 627.918 393.09 626.005 389.67C624.092 386.251 623.136 382.434 623.136 378.219C623.136 374.004 624.092 370.187 626.005 366.847C627.918 363.507 630.548 360.803 633.896 358.894C637.243 356.986 641.069 356.031 645.373 356.031C649.677 355.952 653.423 356.986 656.771 358.894ZM658.205 391.181C661.473 387.841 663.067 383.547 663.067 378.219C663.067 372.891 661.473 368.596 658.205 365.256C654.938 361.916 650.713 360.246 645.453 360.246C640.113 360.246 635.888 361.916 632.7 365.256C629.512 368.596 627.918 372.891 627.918 378.219C627.918 383.547 629.512 387.841 632.7 391.181C635.888 394.521 640.113 396.191 645.453 396.191C650.713 396.191 654.938 394.521 658.205 391.181ZM653.901 378.06C653.025 379.253 651.749 380.127 650.155 380.605L656.292 389.67L649.438 389.75L644.178 381.002H642.344V389.75H636.686V366.29H647.206C649.677 366.29 651.67 366.926 653.184 368.278C654.698 369.551 655.416 371.38 655.416 373.606C655.256 375.356 654.858 376.867 653.901 378.06ZM642.265 376.39H646.728C647.525 376.39 648.242 376.151 648.721 375.754C649.279 375.356 649.518 374.72 649.518 373.925C649.518 373.129 649.279 372.493 648.721 372.095C648.163 371.698 647.525 371.459 646.728 371.459H642.265V376.39Z" fill="black"/>
<path d="M530.999 343.069C523.188 358.576 517.131 376.867 517.131 376.867C517.131 376.867 520.478 385.217 524.384 382.99C528.289 380.764 531.079 360.246 536.02 357.463C541.042 354.68 530.999 343.069 530.999 343.069Z" fill="black"/>
</g>
<defs>
<linearGradient id="paint0_linear_1716_5020" x1="90.0942" y1="0" x2="403.196" y2="527.874" gradientUnits="userSpaceOnUse">
<stop stop-color="#FF9182"/>
<stop offset="1" stop-color="#FF2709"/>
</linearGradient>
<linearGradient id="paint1_linear_1716_5020" x1="71.1411" y1="735.003" x2="98.0743" y2="906.774" gradientUnits="userSpaceOnUse">
<stop stop-color="#FF9182"/>
<stop offset="1" stop-color="#FF2709"/>
</linearGradient>
<clipPath id="clip0_1716_5020">
<rect width="707" height="823" fill="white"/>
</clipPath>
</defs>
</svg>
